<svg width="1200" height="1200" viewBox="0 0 1200 1200" xmlns="http://www.w3.org/2000/svg" role="img">
  <defs>
    <linearGradient id="fur" x1="0%" y1="0%" x2="100%" y2="100%">
      <stop offset="0%" stop-color="#f5d1a4" />
      <stop offset="100%" stop-color="#e0a63a" />
    </linearGradient>
    <linearGradient id="bg" x1="0%" y1="0%" x2="100%" y2="100%">
      <stop offset="0%" stop-color="#f7f3ee" />
      <stop offset="100%" stop-color="#e8dfd3" />
    </linearGradient>
  </defs>
  <rect width="1200" height="1200" fill="url(#bg)" />
  <circle cx="600" cy="620" r="400" fill="#fff" stroke="#d2b48c" stroke-width="24" />
  <ellipse cx="440" cy="430" rx="50" ry="60" fill="#fff" />
  <ellipse cx="760" cy="430" rx="50" ry="60" fill="#fff" />
  <path d="M340 360 C300 220 460 240 440 360" fill="#fff" />
  <path d="M860 360 C900 220 740 240 760 360" fill="#fff" />
  <path d="M460 520 Q600 680 740 520" fill="url(#fur)" />
  <path d="M530 520 Q600 600 670 520" fill="#362a1c" />
  <circle cx="525" cy="470" r="28" fill="#362a1c" />
  <circle cx="675" cy="470" r="28" fill="#362a1c" />
  <path d="M540 580 C560 620 640 620 660 580" stroke="#362a1c" stroke-width="24" fill="none" stroke-linecap="round" />
  <path d="M500 500 Q600 520 700 500" stroke="#362a1c" stroke-width="22" fill="none" stroke-linecap="round" />
  <path d="M440 420 C420 390 460 380 470 420" fill="#fff" />
  <path d="M760 420 C780 390 740 380 730 420" fill="#fff" />
  <text x="600" y="920" text-anchor="middle" fill="#4a2f0f" font-family="Figtree, sans-serif" font-size="88" font-weight="700">@caapitalis</text>
  <text x="600" y="990" text-anchor="middle" fill="#6f5228" font-family="Figtree, sans-serif" font-size="54">Un chat stylé</text>
</svg>
